<svg width="142" height="11" viewBox="0 0 142 11" fill="none" xmlns="http://www.w3.org/2000/svg">
<g id="Group 43">
<circle id="Ellipse 7" cx="114.5" cy="5.5" r="3.5" fill="#00288F"/>
<circle id="Ellipse 6" cx="92.5" cy="5.5" r="3.5" fill="#00288F"/>
<circle id="Ellipse 3" cx="26.5" cy="5.5" r="3.5" fill="#00288F"/>
<circle id="Ellipse 4" cx="48.5" cy="5.5" r="3.5" fill="#00288F"/>
<circle id="Ellipse 5" cx="70.5" cy="5.5" r="3.5" fill="#00288F"/>
<g id="Polygon 1">
<path d="M2.55496 6.84645C1.34861 5.93704 1.3866 4.11338 2.62978 3.255C4.1164 2.22853 6.14047 3.31768 6.10284 5.12386C6.06521 6.93004 3.99754 7.93395 2.55496 6.84645Z" fill="#00288F"/>
<path d="M2.55496 6.84645C1.34861 5.93704 1.3866 4.11338 2.62978 3.255C4.1164 2.22853 6.14047 3.31768 6.10284 5.12386C6.06521 6.93004 3.99754 7.93395 2.55496 6.84645Z" fill="#00288F"/>
</g>
<g id="Polygon 2">
<path d="M138.559 3.24129C139.797 4.10668 139.825 5.93052 138.614 6.8331C137.165 7.91242 135.103 6.89684 135.076 5.09047C135.048 3.28411 137.078 2.20642 138.559 3.24129Z" fill="#00288F"/>
<path d="M138.559 3.24129C139.797 4.10668 139.825 5.93052 138.614 6.8331C137.165 7.91242 135.103 6.89684 135.076 5.09047C135.048 3.28411 137.078 2.20642 138.559 3.24129Z" fill="#00288F"/>
</g>
</g>
</svg>
