<?xml version="1.0" standalone="no"?>
<!DOCTYPE svg PUBLIC "-//W3C//DTD SVG 20010904//EN"
 "http://www.w3.org/TR/2001/REC-SVG-20010904/DTD/svg10.dtd">
<svg version="1.0" xmlns="http://www.w3.org/2000/svg"
 width="204.000000pt" height="180.000000pt" viewBox="0 0 204.000000 180.000000"
 preserveAspectRatio="xMidYMid meet">

<g transform="translate(0.000000,180.000000) scale(0.100000,-0.100000)"
fill="#000000" stroke="none">
<path d="M470 1737 c0 -45 6 -75 23 -107 22 -46 82 -93 387 -307 52 -36 105
-75 117 -86 l22 -20 70 49 c226 158 407 292 435 321 37 40 54 83 55 140 2 90
-19 94 -83 16 -25 -32 -79 -91 -120 -132 l-73 -73 -32 17 c-18 9 -30 12 -27 6
4 -7 1 -8 -8 -5 -9 3 -16 1 -16 -5 0 -6 4 -11 8 -11 4 0 8 -9 8 -19 0 -15 -3
-17 -13 -9 -7 6 -10 15 -6 21 4 7 0 8 -13 3 -15 -6 -14 -3 5 18 14 15 23 26
20 26 -2 0 -19 4 -36 9 -18 5 -32 6 -32 3 3 -21 -3 -31 -15 -26 -8 3 -17 1
-21 -5 -3 -6 -14 -11 -23 -10 -12 0 -11 3 6 9 25 11 27 18 8 43 -30 39 -247 7
-335 -50 -25 -16 -26 -15 -153 115 -70 73 -135 132 -143 132 -12 0 -15 -13
-15 -63z m626 -143 c19 -15 19 -16 -1 -8 -11 4 -28 7 -37 8 -10 0 -18 4 -18 8
0 14 35 9 56 -8z m-196 -18 c0 -8 -4 -18 -10 -21 -5 -3 -10 -1 -10 5 0 8 -6 8
-20 0 -11 -6 -19 -16 -17 -22 1 -7 -13 -12 -35 -13 -31 -1 -36 1 -26 12 6 8
19 11 31 7 13 -4 17 -2 13 5 -5 7 6 17 26 26 42 18 48 18 48 1z m30 -7 c0 8 2
12 5 9 9 -9 -6 -38 -20 -38 -8 0 -11 8 -8 21 4 16 8 17 14 7 7 -11 9 -10 9 1z
m51 -19 c13 7 19 7 19 0 0 -5 18 -10 40 -10 56 0 160 -27 189 -49 l24 -19 -44
-27 c-24 -16 -74 -52 -111 -82 -37 -29 -71 -53 -76 -53 -5 0 -15 7 -23 16 -7
9 -55 45 -106 81 -51 35 -93 71 -93 79 0 8 6 14 13 13 6 -1 40 6 74 17 55 16
63 22 64 44 2 23 2 24 6 3 4 -19 8 -21 24 -13z m96 15 c0 -8 -4 -15 -9 -15 -4
0 -8 7 -8 15 0 8 4 15 8 15 5 0 9 -7 9 -15z m-210 -37 c-3 -8 -6 -5 -6 6 -1
11 2 17 5 13 3 -3 4 -12 1 -19z m310 16 c-3 -3 -12 -4 -19 -1 -8 3 -5 6 6 6
11 1 17 -2 13 -5z"/>
<path d="M1020 1740 c18 -6 10 -8 -30 -6 -55 2 -194 -34 -215 -56 -6 -6 0 -6
13 1 13 7 43 10 70 7 32 -3 37 -3 17 2 l-30 8 29 8 c19 5 32 3 37 -5 9 -15
102 -6 107 10 2 7 11 6 25 -4 26 -18 78 -20 95 -3 15 15 16 32 2 23 -6 -4 -17
-1 -25 5 -8 6 -19 9 -24 6 -5 -4 -12 -2 -16 4 -3 5 -23 10 -43 9 -34 -1 -35
-2 -12 -9z m-17 -27 c-7 -2 -19 -2 -25 0 -7 3 -2 5 12 5 14 0 19 -2 13 -5z"/>
<path d="M726 1661 c-4 -5 3 -7 14 -4 23 6 26 13 6 13 -8 0 -17 -4 -20 -9z"/>
<path d="M764 1644 c-18 -14 -18 -14 6 -3 31 14 36 19 24 19 -6 0 -19 -7 -30
-16z"/>
<path d="M1125 1600 c3 -5 11 -10 16 -10 6 0 7 5 4 10 -3 6 -11 10 -16 10 -6
0 -7 -4 -4 -10z"/>
<path d="M500 1524 c0 -6 7 -34 16 -63 15 -52 15 -55 -8 -105 -19 -43 -23 -68
-23 -156 0 -94 3 -111 27 -160 l27 -55 -19 -59 c-14 -42 -20 -87 -20 -157 0
-122 9 -149 50 -149 l30 0 0 101 c0 81 12 166 26 187 3 5 54 -21 54 -27 0 -22
183 -20 238 2 56 23 57 23 84 -20 13 -20 26 -41 30 -47 5 -7 24 8 50 37 l43
48 44 -15 c74 -27 141 -30 207 -11 32 9 64 21 70 26 22 18 38 -44 42 -163 l4
-118 33 0 c28 0 33 4 39 31 14 70 6 215 -14 275 l-21 59 28 60 c25 53 28 72
28 160 0 90 -3 106 -27 153 -24 46 -25 54 -13 79 7 15 16 44 20 63 l7 35 -67
-67 -68 -67 26 -30 c31 -38 67 -130 67 -175 0 -90 -56 -191 -129 -234 -59 -35
-154 -38 -216 -7 -36 19 -39 23 -42 67 l-2 47 47 -25 c55 -30 113 -28 169 7
51 32 67 71 68 168 1 67 -3 88 -18 107 -21 27 -30 29 -49 12 -16 -16 -132
-107 -208 -165 -30 -23 -67 -44 -81 -48 -48 -12 -108 24 -288 172 -36 29 -71
53 -78 53 -22 0 -36 -43 -40 -122 -4 -92 16 -143 71 -178 56 -34 96 -36 158
-8 l54 25 -6 -46 c-4 -37 -10 -48 -36 -63 -42 -24 -110 -32 -160 -19 -107 29
-176 127 -178 250 0 75 14 118 57 174 l30 39 -66 66 c-37 37 -67 62 -67 56z
m262 -308 c-5 -45 27 -80 69 -74 36 5 38 -9 4 -22 -63 -24 -125 47 -99 114 12
30 30 17 26 -18z m554 -12 c11 -57 -67 -113 -111 -80 -19 15 -18 15 16 16 44
0 59 16 66 70 6 45 19 42 29 -6z m-266 -169 c9 -11 8 -25 -5 -66 l-18 -52 -25
53 c-26 51 -26 52 -7 66 24 18 39 18 55 -1z"/>
<path d="M404 1143 c2 -27 5 -49 5 -50 1 -2 6 -3 12 -3 11 0 9 16 -7 54 -5 14
-4 17 4 12 14 -8 15 -5 6 18 -13 34 -25 14 -20 -31z"/>
<path d="M1642 1090 c0 -14 2 -19 5 -12 2 6 2 18 0 25 -3 6 -5 1 -5 -13z"/>
<path d="M431 1009 c-14 -42 -7 -49 9 -9 7 17 10 33 8 36 -3 3 -11 -9 -17 -27z"/>
<path d="M411 1014 c0 -11 3 -14 6 -6 3 7 2 16 -1 19 -3 4 -6 -2 -5 -13z"/>
<path d="M1580 980 c-14 -27 -6 -38 14 -18 8 9 11 20 6 28 -6 9 -11 7 -20 -10z"/>
<path d="M450 985 c0 -5 5 -17 10 -25 5 -8 10 -10 10 -5 0 6 -5 17 -10 25 -5
8 -10 11 -10 5z"/>
<path d="M1596 945 c-3 -8 -1 -15 4 -15 6 0 10 7 10 15 0 8 -2 15 -4 15 -2 0
-6 -7 -10 -15z"/>
<path d="M436 937 c3 -10 9 -15 12 -12 3 3 0 11 -7 18 -10 9 -11 8 -5 -6z"/>
<path d="M780 752 c0 -62 -62 -83 -88 -29 -7 15 -17 27 -23 27 -16 0 -10 -47
11 -73 30 -38 54 -42 99 -16 37 20 40 21 62 5 31 -21 71 -20 100 3 21 17 25
17 50 2 25 -14 30 -14 61 1 32 15 35 14 57 -3 29 -24 78 -24 103 -2 16 14 22
15 36 5 71 -50 127 -31 147 51 9 36 -6 34 -33 -3 -34 -45 -82 -35 -82 16 0 25
-15 40 -25 24 -8 -14 -48 -13 -63 2 -18 18 -27 1 -13 -29 9 -20 9 -28 0 -34
-19 -12 -53 6 -67 34 -16 33 -25 34 -46 2 -10 -16 -26 -25 -41 -25 -18 0 -28
8 -35 25 -12 31 -28 32 -39 1 -10 -26 -30 -36 -68 -36 -19 0 -24 4 -19 16 3 9
9 28 13 42 6 26 5 27 -14 10 -25 -22 -41 -23 -65 -1 -17 15 -18 15 -18 -15z"/>
<path d="M173 564 c-3 -8 13 -54 35 -102 22 -48 56 -122 76 -165 l35 -77 54 0
55 0 71 160 c39 88 72 166 74 173 1 8 -14 12 -52 12 l-54 0 -45 -108 c-30 -73
-48 -104 -53 -95 -5 7 -23 49 -40 93 -45 118 -51 125 -105 125 -31 0 -46 -5
-51 -16z"/>
<path d="M925 565 c-59 -21 -112 -82 -121 -140 -23 -157 171 -270 314 -183
l33 20 6 -21 c4 -16 13 -21 37 -21 47 0 56 15 56 91 0 102 3 99 -106 99 l-94
0 0 -30 c0 -27 3 -30 29 -30 43 0 47 -16 10 -36 -77 -39 -179 12 -179 90 0 75
110 113 188 66 l33 -20 45 26 c52 31 49 40 -29 79 -59 29 -155 34 -222 10z"/>
<path d="M1630 563 c-24 -42 -160 -325 -160 -333 0 -6 24 -10 53 -10 48 0 55
3 65 25 11 24 16 25 92 25 76 0 81 -1 92 -25 10 -23 17 -25 70 -25 32 0 58 4
58 9 0 8 -69 155 -137 291 -27 54 -29 55 -75 58 -37 2 -49 -1 -58 -15z m75
-159 c21 -51 20 -54 -25 -54 -22 0 -40 2 -40 5 0 15 34 85 41 85 5 0 16 -16
24 -36z"/>
<path d="M635 558 c-3 -8 -4 -86 -3 -173 l3 -160 47 -3 c60 -4 60 -4 56 193
l-3 150 -48 3 c-33 2 -49 -1 -52 -10z"/>
<path d="M1316 553 c-8 -19 -7 -300 1 -320 3 -8 22 -13 54 -13 l49 0 0 175 0
175 -49 0 c-36 0 -50 -4 -55 -17z"/>
<path d="M580 153 c1 -17 56 -117 66 -120 6 -2 23 24 38 57 30 71 30 70 12 70
-8 0 -22 -19 -31 -42 l-17 -43 -21 43 c-12 23 -27 42 -34 42 -7 0 -13 -3 -13
-7z"/>
<path d="M740 100 c0 -47 3 -60 15 -60 12 0 15 13 15 60 0 47 -3 60 -15 60
-12 0 -15 -13 -15 -60z"/>
<path d="M824 146 c-9 -25 1 -109 14 -114 7 -2 12 5 12 17 0 31 17 34 36 6 9
-14 23 -25 30 -25 17 0 17 5 3 32 -8 14 -8 23 0 31 17 17 13 45 -8 57 -28 14
-81 12 -87 -4z m65 -15 c18 -11 5 -31 -20 -31 -18 0 -26 20 -12 33 8 9 15 9
32 -2z"/>
<path d="M950 151 c0 -5 10 -11 23 -13 19 -3 22 -10 25 -55 4 -68 22 -69 22
-2 0 42 3 52 20 56 39 10 19 23 -35 23 -30 0 -55 -4 -55 -9z"/>
<path d="M1090 111 c0 -55 17 -81 54 -81 36 0 56 30 56 84 0 62 -23 58 -30 -5
-4 -36 -9 -44 -25 -44 -17 0 -20 8 -23 48 -2 33 -7 47 -18 47 -10 0 -14 -13
-14 -49z"/>
<path d="M1241 109 c-23 -57 -26 -79 -11 -79 6 0 10 5 10 10 0 14 53 13 68 -2
6 -6 15 -9 19 -5 7 8 -46 127 -58 127 -3 0 -16 -23 -28 -51z m39 -19 c0 -5 -4
-10 -10 -10 -5 0 -10 5 -10 10 0 6 5 10 10 10 6 0 10 -4 10 -10z"/>
<path d="M1370 95 l0 -65 45 0 c33 0 45 4 45 15 0 10 -10 15 -30 15 -29 0 -30
1 -30 50 0 38 -4 50 -15 50 -12 0 -15 -14 -15 -65z"/>
</g>
</svg>
