<svg width="15" height="18" viewBox="0 0 15 18" fill="none" xmlns="http://www.w3.org/2000/svg">
<path d="M7.05142 0.829501C7.36876 0.705703 7.71451 0.690229 8.03896 0.783077L8.17656 0.829501L13.7847 3.017C14.3684 3.24468 14.7682 3.80157 14.819 4.43966L14.8244 4.57755V9.04648C14.8244 11.8038 13.3708 14.3313 11.0518 15.6392L10.8386 15.7547L8.15141 17.1522C7.85067 17.3087 7.50265 17.3261 7.1914 17.2044L7.07657 17.1522L4.38939 15.7547C2.01846 14.5216 0.49511 12.0389 0.407553 9.29648L0.403564 9.04648V4.57755C0.403564 3.92913 0.764482 3.34418 1.32107 3.07074L1.44327 3.017L7.05142 0.829501ZM7.61399 2.39005L2.00588 4.57755V9.04648C2.00588 11.1823 3.12736 13.141 4.91832 14.1618L5.10596 14.264L7.61399 15.5684L10.122 14.264C11.9586 13.3088 13.1413 11.3895 13.2181 9.26676L13.2221 9.04648V4.57755L7.61399 2.39005ZM10.3643 6.19097C10.6772 5.86553 11.1844 5.86553 11.4973 6.19097C11.7861 6.49137 11.8084 6.96406 11.5639 7.29097L11.4973 7.36948L7.3037 11.7316C6.98411 12.064 6.48014 12.0877 6.13421 11.8028L6.05734 11.7316L4.13123 9.72806C3.81837 9.40264 3.81837 8.87498 4.13123 8.54956C4.42004 8.24918 4.87448 8.22607 5.18877 8.48024L5.26425 8.54956L6.68048 10.0227L10.3643 6.19097Z" fill="#6697DF"/>
</svg>
