<svg width="14" height="14" viewBox="0 0 14 14" fill="none" xmlns="http://www.w3.org/2000/svg">
<path fill-rule="#0000000" clip-rule="evenodd" d="M6.12496 1.16663C3.38655 1.16663 1.16663 3.38655 1.16663 6.12496C1.16663 8.86336 3.38655 11.0833 6.12496 11.0833C7.28398 11.0833 8.35014 10.6856 9.1944 10.0193L11.3249 12.1498C11.5527 12.3776 11.9221 12.3776 12.1499 12.1498C12.3777 11.922 12.3777 11.5526 12.1499 11.3249L10.0194 9.19434C10.6856 8.35008 11.0833 7.28393 11.0833 6.12496C11.0833 3.38655 8.86336 1.16663 6.12496 1.16663ZM2.33329 6.12496C2.33329 4.03088 4.03088 2.33329 6.12496 2.33329C8.21907 2.33329 9.91663 4.03088 9.91663 6.12496C9.91663 8.21907 8.21907 9.91663 6.12496 9.91663C4.03088 9.91663 2.33329 8.21907 2.33329 6.12496Z" fill="#09244B"/>
</svg>
