<svg width="203" height="160" viewBox="0 0 203 160" fill="none" xmlns="http://www.w3.org/2000/svg">
<g id="Wireframes - Random Colored kit web 54" clip-path="url(#clip0_25_949)">
<g id="Random Colored kit web 54">
<g id="Group">
<path id="Vector" d="M0 152V8C0 3.46667 4.12344 0 9.51562 0H193.484C198.877 0 203 3.46667 203 8V152C203 156.533 198.877 160 193.484 160H9.51562C4.12344 160 0 156.533 0 152Z" fill="#09244B"/>
<path id="Vector_2" d="M9.51562 13.3333C11.2674 13.3333 12.6875 12.1394 12.6875 10.6667C12.6875 9.19392 11.2674 8 9.51562 8C7.76386 8 6.34375 9.19392 6.34375 10.6667C6.34375 12.1394 7.76386 13.3333 9.51562 13.3333Z" fill="#A3C8FF"/>
<path id="Vector_3" d="M22.2031 13.3333C23.9549 13.3333 25.375 12.1394 25.375 10.6667C25.375 9.19392 23.9549 8 22.2031 8C20.4514 8 19.0312 9.19392 19.0312 10.6667C19.0312 12.1394 20.4514 13.3333 22.2031 13.3333Z" fill="#A3C8FF"/>
<path id="Vector_4" d="M34.8906 13.3333C36.6425 13.3333 38.0625 12.1394 38.0625 10.6667C38.0625 9.19392 36.6425 8 34.8906 8C33.1388 8 31.7188 9.19392 31.7188 10.6667C31.7188 12.1394 33.1388 13.3333 34.8906 13.3333Z" fill="#A3C8FF"/>
<path id="Vector_5" d="M9.51562 21.3333H193.484C195.387 21.3333 196.656 22.3999 196.656 23.9999V152C196.656 153.6 195.387 154.667 193.484 154.667H9.51562C7.6125 154.667 6.34375 153.6 6.34375 152V23.9999C6.34375 22.3999 7.6125 21.3333 9.51562 21.3333Z" fill="#A3C8FF"/>
<path id="Vector_6" d="M193.484 13.3333H47.5781C45.675 13.3333 44.4062 12.2667 44.4062 10.6667C44.4062 9.06667 45.675 8 47.5781 8H193.484C195.387 8 196.656 9.06667 196.656 10.6667C196.656 12.2667 195.387 13.3333 193.484 13.3333Z" fill="#A3C8FF"/>
<path id="Vector_7" d="M177.625 56.0001H88.8125C86.9094 56.0001 85.6406 54.9334 85.6406 53.3334C85.6406 51.7334 86.9094 50.6667 88.8125 50.6667H177.625C179.528 50.6667 180.797 51.7334 180.797 53.3334C180.797 54.9334 179.528 56.0001 177.625 56.0001Z" fill="#09244B"/>
<path id="Vector_8" d="M158.594 77.3333H88.8125C86.9094 77.3333 85.6406 76.2667 85.6406 74.6667C85.6406 73.0667 86.9094 72 88.8125 72H158.594C160.497 72 161.766 73.0667 161.766 74.6667C161.766 76.2667 160.497 77.3333 158.594 77.3333Z" fill="#09244B"/>
<path id="Vector_9" d="M142.734 66.6666H88.8125C86.9094 66.6666 85.6406 65.5999 85.6406 63.9999C85.6406 62.3999 86.9094 61.3333 88.8125 61.3333H142.734C144.638 61.3333 145.906 62.3999 145.906 63.9999C145.906 65.5999 144.638 66.6666 142.734 66.6666Z" fill="#09244B"/>
<path id="Vector_10" d="M85.6406 42.6667C85.6406 41.0667 86.9094 40 88.8125 40H104.672C106.575 40 107.844 41.0667 107.844 42.6667C107.844 44.2667 106.575 45.3333 104.672 45.3333H88.8125C86.9094 45.3333 85.6406 44.2667 85.6406 42.6667Z" fill="#00288F"/>
<path id="Vector_11" d="M177.625 112H88.8125C86.9094 112 85.6406 110.933 85.6406 109.333C85.6406 107.733 86.9094 106.667 88.8125 106.667H177.625C179.528 106.667 180.797 107.733 180.797 109.333C180.797 110.933 179.528 112 177.625 112Z" fill="#09244B"/>
<path id="Vector_12" d="M158.594 133.333H88.8125C86.9094 133.333 85.6406 132.267 85.6406 130.667C85.6406 129.067 86.9094 128 88.8125 128H158.594C160.497 128 161.766 129.067 161.766 130.667C161.766 132.267 160.497 133.333 158.594 133.333Z" fill="#09244B"/>
<path id="Vector_13" d="M142.734 122.667H88.8125C86.9094 122.667 85.6406 121.6 85.6406 120C85.6406 118.4 86.9094 117.333 88.8125 117.333H142.734C144.638 117.333 145.906 118.4 145.906 120C145.906 121.6 144.638 122.667 142.734 122.667Z" fill="#09244B"/>
<path id="Vector_14" d="M85.6406 98.6667C85.6406 97.0667 86.9094 96 88.8125 96H104.672C106.575 96 107.844 97.0667 107.844 98.6667C107.844 100.267 106.575 101.333 104.672 101.333H88.8125C86.9094 101.333 85.6406 100.267 85.6406 98.6667Z" fill="#00288F"/>
<g id="Group_2">
<g id="Group_3">
<g id="Group_4">
<path id="Vector_15" d="M25.375 132C24.4234 132 23.7891 131.467 23.7891 130.667V98.6666C23.7891 97.8666 24.4234 97.3333 25.375 97.3333H69.7812C70.7328 97.3333 71.3672 97.8666 71.3672 98.6666V130.667C71.3672 131.467 70.7328 132 69.7812 132H25.375Z" fill="#EE2C39"/>
</g>
<path id="Vector_16" d="M69.7812 96H25.375C23.4719 96 22.2031 97.0667 22.2031 98.6667V130.667C22.2031 132.267 23.4719 133.333 25.375 133.333H69.7812C71.6844 133.333 72.9531 132.267 72.9531 130.667V98.6667C72.9531 97.0667 71.6844 96 69.7812 96ZM69.7812 130.667H25.375V98.6667H69.7812V130.667Z" fill="#CC202C"/>
</g>
<g id="Group_5">
<path id="Vector_17" d="M52.9703 116.266L43.4547 112.266C42.8203 112 42.5031 112 41.8687 112.266C41.5516 112.533 41.2344 113.066 41.2344 113.333V121.333C41.2344 121.866 41.5516 122.133 41.8687 122.4C42.1859 122.4 42.5031 122.666 42.8203 122.666C43.1375 122.666 43.4547 122.666 43.4547 122.4L52.9703 118.4C53.6047 118.133 53.9219 117.6 53.9219 117.333C53.9219 117.066 53.6047 116.266 52.9703 116.266Z" fill="#CC202C"/>
</g>
<g id="Group_6">
<path id="Vector_18" d="M52.9703 113.6L43.4547 109.6C42.8203 109.333 42.5031 109.333 41.8687 109.6C41.5516 109.866 41.2344 110.4 41.2344 110.666V118.666C41.2344 119.2 41.5516 119.466 41.8687 119.733C42.1859 119.733 42.5031 120 42.8203 120C43.1375 120 43.4547 120 43.4547 119.733L52.9703 115.733C53.6047 115.466 53.9219 114.933 53.9219 114.666C53.9219 114.4 53.6047 113.6 52.9703 113.6Z" fill="#A3C8FF"/>
</g>
</g>
<g id="Group_7">
<g id="Group_8">
<g id="Group_9">
<path id="Vector_19" d="M25.375 75.9999C24.4234 75.9999 23.7891 75.4666 23.7891 74.6666V42.6666C23.7891 41.8666 24.4234 41.3333 25.375 41.3333H69.7812C70.7328 41.3333 71.3672 41.8666 71.3672 42.6666V74.6666C71.3672 75.4666 70.7328 75.9999 69.7812 75.9999H25.375Z" fill="#EE2C39"/>
</g>
<path id="Vector_20" d="M69.7812 40H25.375C23.4719 40 22.2031 41.0667 22.2031 42.6667V74.6667C22.2031 76.2667 23.4719 77.3333 25.375 77.3333H69.7812C71.6844 77.3333 72.9531 76.2667 72.9531 74.6667V42.6667C72.9531 41.0667 71.6844 40 69.7812 40ZM69.7812 74.6667H25.375V42.6667H69.7812V74.6667Z" fill="#CC202C"/>
</g>
<g id="Group_10">
<path id="Vector_21" d="M52.9703 60.2664L43.4547 56.2664C42.8203 55.9997 42.5031 55.9997 41.8687 56.2664C41.5516 56.5331 41.2344 57.0664 41.2344 57.3331V65.3331C41.2344 65.8664 41.5516 66.1331 41.8687 66.3997C42.1859 66.3997 42.5031 66.6664 42.8203 66.6664C43.1375 66.6664 43.4547 66.6664 43.4547 66.3997L52.9703 62.3997C53.6047 62.1331 53.9219 61.5997 53.9219 61.3331C53.9219 61.0664 53.6047 60.2664 52.9703 60.2664Z" fill="#CC202C"/>
</g>
<g id="Group_11">
<path id="Vector_22" d="M52.9703 57.5997L43.4547 53.5997C42.8203 53.333 42.5031 53.333 41.8687 53.5997C41.5516 53.8663 41.2344 54.3997 41.2344 54.6663V62.6663C41.2344 63.1997 41.5516 63.4663 41.8687 63.733C42.1859 63.733 42.5031 63.9997 42.8203 63.9997C43.1375 63.9997 43.4547 63.9997 43.4547 63.733L52.9703 59.733C53.6047 59.4663 53.9219 58.933 53.9219 58.6663C53.9219 58.3997 53.6047 57.5997 52.9703 57.5997Z" fill="#A3C8FF"/>
</g>
</g>
</g>
</g>
</g>
<defs>
<clipPath id="clip0_25_949">
<rect width="203" height="160" fill="white"/>
</clipPath>
</defs>
</svg>
